M48
; DRILL file {KiCad (5.1.10)-1} date 07/25/21 01:32:22
; FORMAT={-:-/ absolute / inch / decimal}
; #@! TF.CreationDate,2021-07-25T01:32:22+01:00
; #@! TF.GenerationSoftware,Kicad,Pcbnew,(5.1.10)-1
; #@! TF.FileFunction,Plated,1,4,PTH
FMAT,2
INCH
T1C0.0157
T2C0.0300
T3C0.0315
T4C0.0394
T5C0.1059
%
G90
G05
T1
X2.91Y-2.52
X2.92Y-2.59
X3.57Y-5.36
X3.73Y-5.35
X3.98Y-5.23
X4.14Y-5.19
X4.95Y-2.84
X5.05Y-2.79
X5.15Y-2.82
X5.19Y-2.38
X5.27Y-2.86
X5.28Y-5.47
X5.34Y-2.33
X5.34Y-5.43
X5.4Y-5.39
X5.45Y-5.35
X5.51Y-5.31
X5.57Y-5.27
X5.63Y-5.23
X5.68Y-5.19
X6.06Y-3.25
X6.16Y-3.24
X6.26Y-1.97
X6.26Y-2.87
X6.26Y-3.67
X6.26Y-4.57
X6.26Y-5.29
X6.36Y-2.01
X6.36Y-2.83
X6.36Y-3.63
X6.36Y-4.53
X6.36Y-5.19
X6.46Y-2.05
X6.46Y-2.78
X6.46Y-3.59
X6.46Y-4.49
X6.46Y-5.09
X6.56Y-2.09
X6.56Y-2.75
X6.56Y-3.55
X6.56Y-4.45
X6.56Y-4.99
X6.66Y-2.3
X6.66Y-2.71
X6.66Y-3.51
X6.66Y-4.41
X6.66Y-4.89
X6.76Y-2.24
X6.76Y-2.67
X6.76Y-3.47
X6.76Y-4.37
X6.76Y-4.79
X6.86Y-2.18
X6.86Y-2.63
X6.86Y-3.43
X6.86Y-4.33
X6.86Y-4.69
X6.96Y-2.13
X6.96Y-2.59
X6.96Y-3.39
X6.96Y-4.29
X6.96Y-4.59
T2
X1.8219Y-3.73
X1.8219Y-4.63
X1.94Y-3.73
X1.94Y-4.63
X2.7519Y-3.73
X2.7519Y-4.63
X2.87Y-3.73
X2.87Y-4.63
X3.95Y-3.73
X3.9519Y-4.63
X4.0681Y-3.73
X4.07Y-4.63
X4.7Y-2.27
X4.7Y-2.3881
X4.71Y-3.07
X4.71Y-3.1881
X4.71Y-3.97
X4.71Y-4.0881
X4.71Y-4.87
X4.71Y-4.9881
T3
X1.63Y-2.99
X1.63Y-3.09
X1.63Y-3.19
X1.63Y-3.29
X1.63Y-3.39
X1.63Y-3.49
X1.63Y-3.59
X1.63Y-3.89
X1.63Y-3.99
X1.63Y-4.09
X1.63Y-4.19
X1.63Y-4.29
X1.63Y-4.39
X1.63Y-4.49
X1.93Y-2.99
X1.93Y-3.09
X1.93Y-3.19
X1.93Y-3.29
X1.93Y-3.39
X1.93Y-3.49
X1.93Y-3.59
X1.93Y-3.89
X1.93Y-3.99
X1.93Y-4.09
X1.93Y-4.19
X1.93Y-4.29
X1.93Y-4.39
X1.93Y-4.49
X2.56Y-2.99
X2.56Y-3.09
X2.56Y-3.19
X2.56Y-3.29
X2.56Y-3.39
X2.56Y-3.49
X2.56Y-3.59
X2.56Y-3.89
X2.56Y-3.99
X2.56Y-4.09
X2.56Y-4.19
X2.56Y-4.29
X2.56Y-4.39
X2.56Y-4.49
X2.86Y-2.99
X2.86Y-3.09
X2.86Y-3.19
X2.86Y-3.29
X2.86Y-3.39
X2.86Y-3.49
X2.86Y-3.59
X2.86Y-3.89
X2.86Y-3.99
X2.86Y-4.09
X2.86Y-4.19
X2.86Y-4.29
X2.86Y-4.39
X2.86Y-4.49
X3.75Y-2.99
X3.75Y-3.09
X3.75Y-3.19
X3.75Y-3.29
X3.75Y-3.39
X3.75Y-3.49
X3.75Y-3.59
X3.76Y-3.89
X3.76Y-3.99
X3.76Y-4.09
X3.76Y-4.19
X3.76Y-4.29
X3.76Y-4.39
X3.76Y-4.49
X4.05Y-2.99
X4.05Y-3.09
X4.05Y-3.19
X4.05Y-3.29
X4.05Y-3.39
X4.05Y-3.49
X4.05Y-3.59
X4.06Y-3.89
X4.06Y-3.99
X4.06Y-4.09
X4.06Y-4.19
X4.06Y-4.29
X4.06Y-4.39
X4.06Y-4.49
X4.17Y-5.78
X4.17Y-6.08
X4.27Y-5.78
X4.27Y-6.08
X4.37Y-5.78
X4.37Y-6.08
X4.47Y-5.78
X4.47Y-6.08
X4.57Y-5.78
X4.57Y-6.08
X4.67Y-5.78
X4.67Y-6.08
X4.77Y-5.78
X4.77Y-6.08
X4.84Y-2.19
X4.84Y-2.49
X4.85Y-2.99
X4.85Y-3.29
X4.85Y-3.89
X4.85Y-4.19
X4.85Y-4.79
X4.85Y-5.09
X4.94Y-2.19
X4.94Y-2.49
X4.95Y-2.99
X4.95Y-3.29
X4.95Y-3.89
X4.95Y-4.19
X4.95Y-4.79
X4.95Y-5.09
X5.04Y-2.19
X5.04Y-2.49
X5.05Y-2.99
X5.05Y-3.29
X5.05Y-3.89
X5.05Y-4.19
X5.05Y-4.79
X5.05Y-5.09
X5.14Y-2.19
X5.14Y-2.49
X5.15Y-2.99
X5.15Y-3.29
X5.15Y-3.89
X5.15Y-4.19
X5.15Y-4.79
X5.15Y-5.09
X5.24Y-2.19
X5.24Y-2.49
X5.25Y-2.99
X5.25Y-3.29
X5.25Y-3.89
X5.25Y-4.19
X5.25Y-4.79
X5.25Y-5.09
X5.34Y-2.19
X5.34Y-2.49
X5.35Y-2.99
X5.35Y-3.29
X5.35Y-3.89
X5.35Y-4.19
X5.35Y-4.79
X5.35Y-5.09
X5.37Y-5.77
X5.37Y-6.07
X5.44Y-1.37
X5.44Y-1.67
X5.44Y-2.19
X5.44Y-2.49
X5.45Y-2.99
X5.45Y-3.29
X5.45Y-3.89
X5.45Y-4.19
X5.45Y-4.79
X5.45Y-5.09
X5.47Y-5.77
X5.47Y-6.07
X5.54Y-1.37
X5.54Y-1.67
X5.54Y-2.19
X5.54Y-2.49
X5.55Y-2.99
X5.55Y-3.29
X5.55Y-3.89
X5.55Y-4.19
X5.55Y-4.79
X5.55Y-5.09
X5.57Y-5.77
X5.57Y-6.07
X5.64Y-1.37
X5.64Y-1.67
X5.64Y-2.19
X5.64Y-2.49
X5.65Y-2.99
X5.65Y-3.29
X5.65Y-3.89
X5.65Y-4.19
X5.65Y-4.79
X5.65Y-5.09
X5.67Y-5.77
X5.67Y-6.07
X5.74Y-1.37
X5.74Y-1.67
X5.74Y-2.19
X5.74Y-2.49
X5.75Y-2.99
X5.75Y-3.29
X5.75Y-3.89
X5.75Y-4.19
X5.75Y-4.79
X5.75Y-5.09
X5.77Y-5.77
X5.77Y-6.07
X5.84Y-1.37
X5.84Y-1.67
X5.87Y-5.77
X5.87Y-6.07
X5.94Y-1.37
X5.94Y-1.67
X5.97Y-5.77
X5.97Y-6.07
X6.04Y-1.37
X6.04Y-1.67
X6.45Y-1.37
X6.45Y-1.67
X6.49Y-5.29
X6.49Y-5.59
X6.55Y-1.37
X6.55Y-1.67
X6.59Y-5.29
X6.59Y-5.59
X6.65Y-1.37
X6.65Y-1.67
X6.69Y-5.29
X6.69Y-5.59
X6.75Y-1.37
X6.75Y-1.67
X6.79Y-5.29
X6.79Y-5.59
X6.85Y-1.37
X6.85Y-1.67
X6.89Y-5.29
X6.89Y-5.59
X6.95Y-1.37
X6.95Y-1.67
X6.99Y-5.29
X6.99Y-5.59
X7.05Y-1.37
X7.05Y-1.67
X7.09Y-5.29
X7.09Y-5.59
X7.19Y-5.29
X7.19Y-5.59
T4
X2.36Y-1.96
X2.36Y-2.06
X2.46Y-1.96
X2.46Y-2.06
X2.56Y-1.96
X2.56Y-2.06
X2.66Y-1.96
X2.66Y-2.06
X2.76Y-1.96
X2.76Y-2.06
X2.86Y-1.96
X2.86Y-2.06
X2.96Y-1.96
X2.96Y-2.06
X3.06Y-1.96
X3.06Y-2.06
X3.16Y-1.96
X3.16Y-2.06
X3.26Y-1.96
X3.26Y-2.06
X3.36Y-1.96
X3.36Y-2.06
X3.46Y-1.96
X3.46Y-2.06
X3.56Y-1.96
X3.56Y-2.06
X3.66Y-1.96
X3.66Y-2.06
X3.76Y-1.96
X3.76Y-2.06
X3.86Y-1.96
X3.86Y-2.06
X3.96Y-1.96
X3.96Y-2.06
X7.58Y-1.75
X7.58Y-1.85
X7.58Y-1.95
X7.58Y-2.05
X7.58Y-2.15
X7.58Y-2.25
X7.58Y-2.35
X7.58Y-2.45
X7.58Y-2.55
X7.58Y-2.65
X7.58Y-2.75
X7.58Y-2.85
X7.58Y-2.95
X7.58Y-3.05
X7.58Y-3.15
X7.58Y-3.25
X7.58Y-3.35
X7.58Y-3.45
X7.58Y-3.55
X7.58Y-3.65
X7.58Y-3.75
X7.58Y-3.85
X7.58Y-3.95
X7.58Y-4.05
X7.58Y-4.15
X7.58Y-4.25
X7.58Y-4.35
X7.58Y-4.45
X7.58Y-4.55
X7.58Y-4.65
X7.58Y-4.75
X7.58Y-4.85
X7.58Y-4.95
X7.58Y-5.05
X7.58Y-5.15
X7.58Y-5.25
X7.58Y-5.35
X7.58Y-5.45
X7.58Y-5.55
X7.58Y-5.65
X7.68Y-1.75
X7.68Y-1.85
X7.68Y-1.95
X7.68Y-2.05
X7.68Y-2.15
X7.68Y-2.25
X7.68Y-2.35
X7.68Y-2.45
X7.68Y-2.55
X7.68Y-2.65
X7.68Y-2.75
X7.68Y-2.85
X7.68Y-2.95
X7.68Y-3.05
X7.68Y-3.15
X7.68Y-3.25
X7.68Y-3.35
X7.68Y-3.45
X7.68Y-3.55
X7.68Y-3.65
X7.68Y-3.75
X7.68Y-3.85
X7.68Y-3.95
X7.68Y-4.05
X7.68Y-4.15
X7.68Y-4.25
X7.68Y-4.35
X7.68Y-4.45
X7.68Y-4.55
X7.68Y-4.65
X7.68Y-4.75
X7.68Y-4.85
X7.68Y-4.95
X7.68Y-5.05
X7.68Y-5.15
X7.68Y-5.25
X7.68Y-5.35
X7.68Y-5.45
X7.68Y-5.55
X7.68Y-5.65
T5
X2.1275Y-1.9891
X4.1925Y-1.9891
T0
M30
